[img]http://img543.imageshack.us/img543/9775/despicablemever2.jpg[/img]
[code]
Despicable.Me.PPVRiP.XVID.AC3.Hive-CM8

Thx Hive

CM8 Doing It Right The First Time

Source: Despicable Me PPVRiP AC3 XViD - IMAGiNE
THX imagine for video and audio

Encode:
as everyone noticed the ar is way off. after trying a lot with different aspects i noticed its very simple, the source is 4:3 and not 16:9 so by just changing the aspect to 4:3 and correcting the 16:9 width it gets as it should be.
i cleaned the audio from hiss, hum and noise, got 80% rid of it. more would attack the voice clearance. but its better now.

Video: 528x384 @bitrate 1800 2pass
Audio: AC3 2.0 Stereo
Sample: Yes included

General
Complete name                    : Despicable.Me.PPVRiP.XVID.AC3.Hive-CM8.avi
Format                           : AVI
Format/Info                      : Audio Video Interleave
File size                        : 1.36 GiB
Duration                         : 1h 34mn
Overall bit rate                 : 2 065 Kbps
Writing application              : Nandub v1.0rc2
Writing library                  : Nandub build 1853/release

Video
ID                               : 0
Format                           : MPEG-4 Visual
Format profile                   : Advanced Simple@L5
Format settings, BVOP            : Yes
Format settings, QPel            : Yes
Format settings, GMC             : No warppoints
Format settings, Matrix          : Default (H.263)
Muxing mode                      : Packed bitstream
Codec ID                         : XVID
Codec ID/Hint                    : XviD
Duration                         : 1h 34mn
Bit rate                         : 1 800 Kbps
Width                            : 528 pixels
Height                           : 384 pixels
Display aspect ratio             : 1.375
Frame rate                       : 23.976 fps
Color space                      : YUV
Chroma subsampling               : 4:2:0
Bit depth                        : 8 bits
Scan type                        : Progressive
Bits/(Pixel*Frame)               : 0.370
Stream size                      : 1.19 GiB (87%)
Writing library                  : XviD 1.2.1 (UTC 2008-12-04)

Audio
ID                               : 1
Format                           : AC-3
Format/Info                      : Audio Coding 3
Mode extension                   : CM (complete main)
Codec ID                         : 2000
Duration                         : 1h 34mn
Bit rate mode                    : Constant
Bit rate                         : 256 Kbps
Channel(s)                       : 2 channels
Channel positions                : Front: L R
Sampling rate                    : 48.0 KHz
Bit depth                        : 16 bits
Stream size                      : 173 MiB (12%)
Alignment                        : Split accross interleaves
Interleave, duration             : 42 ms (1.00 video frame)
Interleave, preload duration     : 500 ms

Greetz

DiGiTALiNK -iNK, IMAGiNE, LEGi0N, LUSi,ViSiON,MAGNET,CLASSiFiED,
MEMORY100,goldadvance,SAFC,Unevano,Pinnz,Wayne 
and all P2P groups 
Great Work Guys 
[/code]
Screens:
[img]http://img191.imageshack.us/img191/5402/dm1u.png[/img]
[img]http://img35.imageshack.us/img35/2261/dm2l.png[/img]
Tracker list:
[code] 
http://exodus.1337x.org/announce 
http://nemesis.1337x.org/announce 
http://denis.stalker.h3q.com/announce 
http://genesis.1337x.org:1337/announce 
http://tracker.publicbt.com:80/announce 
http://tracker.openbittorrent.com:80/announce
[/code]
Info hash: 
[code]
6C6EB3398168D75137B76A118F476DE05A666A1A
[/code]
[img]http://torrent-stats.info/6a11/68ff8c2c.png[/img]